<svg width="1667" height="1015" xmlns="http://www.w3.org/2000/svg" xmlns:xlink="http://www.w3.org/1999/xlink" xml:space="preserve" overflow="hidden"><defs><clipPath id="clip0"><rect x="791" y="300" width="1667" height="1015"/></clipPath><clipPath id="clip1"><rect x="792" y="301" width="1664" height="1011"/></clipPath><clipPath id="clip2"><rect x="792" y="301" width="1664" height="1011"/></clipPath><clipPath id="clip3"><rect x="792" y="301" width="1664" height="1011"/></clipPath><clipPath id="clip4"><rect x="792" y="301" width="1664" height="1011"/></clipPath><clipPath id="clip5"><rect x="1016" y="452" width="1331" height="646"/></clipPath><clipPath id="clip6"><rect x="792" y="301" width="1664" height="1011"/></clipPath><clipPath id="clip7"><rect x="1016" y="452" width="1331" height="646"/></clipPath><clipPath id="clip8"><rect x="792" y="301" width="1664" height="1011"/></clipPath><clipPath id="clip9"><rect x="792" y="301" width="1664" height="1011"/></clipPath><clipPath id="clip10"><rect x="792" y="301" width="1664" height="1011"/></clipPath><clipPath id="clip11"><rect x="792" y="301" width="1664" height="1011"/></clipPath><clipPath id="clip12"><rect x="792" y="301" width="1664" height="1011"/></clipPath><clipPath id="clip13"><rect x="792" y="301" width="1664" height="1011"/></clipPath><clipPath id="clip14"><rect x="792" y="301" width="1664" height="1011"/></clipPath><clipPath id="clip15"><rect x="792" y="301" width="1664" height="1011"/></clipPath><clipPath id="clip16"><rect x="792" y="301" width="1664" height="1011"/></clipPath><clipPath id="clip17"><rect x="792" y="301" width="1664" height="1011"/></clipPath><clipPath id="clip18"><rect x="792" y="301" width="1664" height="1011"/></clipPath><clipPath id="clip19"><rect x="792" y="301" width="1664" height="1011"/></clipPath><clipPath id="clip20"><rect x="792" y="301" width="1664" height="1011"/></clipPath><clipPath id="clip21"><rect x="792" y="301" width="1664" height="1011"/></clipPath><clipPath id="clip22"><rect x="792" y="301" width="1664" height="1011"/></clipPath><clipPath id="clip23"><rect x="792" y="301" width="1664" height="1011"/></clipPath><clipPath id="clip24"><rect x="792" y="301" width="1664" height="1011"/></clipPath><clipPath id="clip25"><rect x="792" y="301" width="1664" height="1011"/></clipPath><clipPath id="clip26"><rect x="792" y="301" width="1664" height="1011"/></clipPath><clipPath id="clip27"><rect x="792" y="301" width="1664" height="1011"/></clipPath><clipPath id="clip28"><rect x="792" y="301" width="1664" height="1011"/></clipPath><clipPath id="clip29"><rect x="792" y="301" width="1664" height="1011"/></clipPath><clipPath id="clip30"><rect x="792" y="301" width="1664" height="1011"/></clipPath><clipPath id="clip31"><rect x="792" y="301" width="1664" height="1011"/></clipPath><clipPath id="clip32"><rect x="792" y="301" width="1664" height="1011"/></clipPath><clipPath id="clip33"><rect x="792" y="301" width="1664" height="1011"/></clipPath><clipPath id="clip34"><rect x="792" y="301" width="1664" height="1011"/></clipPath><clipPath id="clip35"><rect x="792" y="301" width="1664" height="1011"/></clipPath><clipPath id="clip36"><rect x="792" y="301" width="1664" height="1011"/></clipPath><clipPath id="clip37"><rect x="792" y="301" width="1664" height="1011"/></clipPath><clipPath id="clip38"><rect x="792" y="301" width="1664" height="1011"/></clipPath></defs><g clip-path="url(#clip0)" transform="translate(-791 -300)"><rect x="792" y="301" width="1664" height="1012" fill="#FFFFFF"/><g clip-path="url(#clip1)"><path d="M1016.5 1023.53 2344.5 1023.53M1016.5 951.531 2344.5 951.531M1016.5 880.529 2344.5 880.529M1016.5 809.527 2344.5 809.527M1016.5 737.524 2344.5 737.524M1016.5 666.522 2344.5 666.522M1016.5 594.52 2344.5 594.52M1016.5 523.517 2344.5 523.517M1016.5 452.5 2344.5 452.5" stroke="#D9D9D9" stroke-width="3.4375" stroke-linejoin="round" stroke-miterlimit="10" fill="none"/></g><g clip-path="url(#clip2)"><path d="M1182.54 452.5 1182.54 1094.5M1348.54 452.5 1348.54 1094.5M1514.55 452.5 1514.55 1094.5M1680.56 452.5 1680.56 1094.5M1846.56 452.5 1846.56 1094.5M2012.57 452.5 2012.57 1094.5M2178.57 452.5 2178.57 1094.5M2344.5 452.5 2344.5 1094.5" stroke="#D9D9D9" stroke-width="3.4375" stroke-linejoin="round" stroke-miterlimit="10" fill="none"/></g><g clip-path="url(#clip3)"><path d="M0 0 0.000360892 642" stroke="#BFBFBF" stroke-width="3.4375" stroke-linejoin="round" stroke-miterlimit="10" fill="none" fill-rule="evenodd" transform="matrix(1 0 0 -1 1016.5 1094.5)"/></g><g clip-path="url(#clip4)"><path d="M1016.5 1094.5 2344.5 1094.5" stroke="#BFBFBF" stroke-width="3.4375" stroke-linejoin="round" stroke-miterlimit="10" fill="none" fill-rule="evenodd"/></g><g clip-path="url(#clip5)"><path d="M1028.5 936.5 1046.53 898.53 1075.54 851.528 1105.54 817.527 1134.54 791.526 1312.54 697.523 1609.55 611.52 1905.56 555.518 2201.5 513.5" stroke="#4472C4" stroke-width="6.875" stroke-linecap="round" stroke-linejoin="round" stroke-miterlimit="10" fill="none"/></g><g clip-path="url(#clip6)"><path d="M1039.86 936.942C1039.86 943.017 1034.93 947.941 1028.86 947.941 1022.78 947.941 1017.86 943.017 1017.86 936.942 1017.86 930.867 1022.78 925.942 1028.86 925.942 1034.93 925.942 1039.86 930.867 1039.86 936.942Z" stroke="#4472C4" stroke-width="3.4375" stroke-linejoin="round" stroke-miterlimit="10" fill="#4472C4"/><path d="M1057.86 898.942C1057.86 905.017 1052.93 909.941 1046.86 909.941 1040.78 909.941 1035.86 905.017 1035.86 898.942 1035.86 892.867 1040.78 887.942 1046.86 887.942 1052.93 887.942 1057.86 892.867 1057.86 898.942Z" stroke="#4472C4" stroke-width="3.4375" stroke-linejoin="round" stroke-miterlimit="10" fill="#4472C4"/><path d="M1086.86 851.942C1086.86 858.017 1081.93 862.941 1075.86 862.941 1069.78 862.941 1064.86 858.017 1064.86 851.942 1064.86 845.867 1069.78 840.942 1075.86 840.942 1081.93 840.942 1086.86 845.867 1086.86 851.942Z" stroke="#4472C4" stroke-width="3.4375" stroke-linejoin="round" stroke-miterlimit="10" fill="#4472C4"/><path d="M1116.86 817.942C1116.86 824.017 1111.93 828.941 1105.86 828.941 1099.78 828.941 1094.86 824.017 1094.86 817.942 1094.86 811.867 1099.78 806.942 1105.86 806.942 1111.93 806.942 1116.86 811.867 1116.86 817.942Z" stroke="#4472C4" stroke-width="3.4375" stroke-linejoin="round" stroke-miterlimit="10" fill="#4472C4"/><path d="M1145.86 791.942C1145.86 798.017 1140.93 802.942 1134.86 802.942 1128.78 802.942 1123.86 798.017 1123.86 791.942 1123.86 785.867 1128.78 780.942 1134.86 780.942 1140.93 780.942 1145.86 785.867 1145.86 791.942Z" stroke="#4472C4" stroke-width="3.4375" stroke-linejoin="round" stroke-miterlimit="10" fill="#4472C4"/><path d="M1323.86 697.942C1323.86 704.017 1318.93 708.941 1312.86 708.941 1306.78 708.941 1301.86 704.017 1301.86 697.942 1301.86 691.867 1306.78 686.942 1312.86 686.942 1318.93 686.942 1323.86 691.867 1323.86 697.942Z" stroke="#4472C4" stroke-width="3.4375" stroke-linejoin="round" stroke-miterlimit="10" fill="#4472C4"/><path d="M1620.86 611.942C1620.86 618.017 1615.93 622.941 1609.86 622.941 1603.78 622.941 1598.86 618.017 1598.86 611.942 1598.86 605.867 1603.78 600.942 1609.86 600.942 1615.93 600.942 1620.86 605.867 1620.86 611.942Z" stroke="#4472C4" stroke-width="3.4375" stroke-linejoin="round" stroke-miterlimit="10" fill="#4472C4"/><path d="M1916.86 555.942C1916.86 562.017 1911.93 566.941 1905.86 566.941 1899.78 566.941 1894.86 562.017 1894.86 555.942 1894.86 549.867 1899.78 544.942 1905.86 544.942 1911.93 544.942 1916.86 549.867 1916.86 555.942Z" stroke="#4472C4" stroke-width="3.4375" stroke-linejoin="round" stroke-miterlimit="10" fill="#4472C4"/><path d="M2212.86 513.942C2212.86 520.017 2207.93 524.941 2201.86 524.941 2195.78 524.941 2190.86 520.017 2190.86 513.942 2190.86 507.867 2195.78 502.942 2201.86 502.942 2207.93 502.942 2212.86 507.867 2212.86 513.942Z" stroke="#4472C4" stroke-width="3.4375" stroke-linejoin="round" stroke-miterlimit="10" fill="#4472C4"/></g><g clip-path="url(#clip7)"><path d="M1028.5 936.5 1046.53 898.53 1075.54 851.528 1105.54 817.527 1134.54 791.526 1312.54 697.523 1609.55 611.52 1905.56 555.518 2201.5 513.5" stroke="#ED7D31" stroke-width="6.875" stroke-linecap="round" stroke-linejoin="round" stroke-miterlimit="10" fill="none"/></g><g clip-path="url(#clip8)"><path d="M1039.86 936.942C1039.86 943.017 1034.93 947.941 1028.86 947.941 1022.78 947.941 1017.86 943.017 1017.86 936.942 1017.86 930.867 1022.78 925.942 1028.86 925.942 1034.93 925.942 1039.86 930.867 1039.86 936.942Z" stroke="#ED7D31" stroke-width="3.4375" stroke-linejoin="round" stroke-miterlimit="10" fill="#ED7D31"/><path d="M1057.86 898.942C1057.86 905.017 1052.93 909.941 1046.86 909.941 1040.78 909.941 1035.86 905.017 1035.86 898.942 1035.86 892.867 1040.78 887.942 1046.86 887.942 1052.93 887.942 1057.86 892.867 1057.86 898.942Z" stroke="#ED7D31" stroke-width="3.4375" stroke-linejoin="round" stroke-miterlimit="10" fill="#ED7D31"/><path d="M1086.86 851.942C1086.86 858.017 1081.93 862.941 1075.86 862.941 1069.78 862.941 1064.86 858.017 1064.86 851.942 1064.86 845.867 1069.78 840.942 1075.86 840.942 1081.93 840.942 1086.86 845.867 1086.86 851.942Z" stroke="#ED7D31" stroke-width="3.4375" stroke-linejoin="round" stroke-miterlimit="10" fill="#ED7D31"/><path d="M1116.86 817.942C1116.86 824.017 1111.93 828.941 1105.86 828.941 1099.78 828.941 1094.86 824.017 1094.86 817.942 1094.86 811.867 1099.78 806.942 1105.86 806.942 1111.93 806.942 1116.86 811.867 1116.86 817.942Z" stroke="#ED7D31" stroke-width="3.4375" stroke-linejoin="round" stroke-miterlimit="10" fill="#ED7D31"/><path d="M1145.86 791.942C1145.86 798.017 1140.93 802.942 1134.86 802.942 1128.78 802.942 1123.86 798.017 1123.86 791.942 1123.86 785.867 1128.78 780.942 1134.86 780.942 1140.93 780.942 1145.86 785.867 1145.86 791.942Z" stroke="#ED7D31" stroke-width="3.4375" stroke-linejoin="round" stroke-miterlimit="10" fill="#ED7D31"/><path d="M1323.86 697.942C1323.86 704.017 1318.93 708.941 1312.86 708.941 1306.78 708.941 1301.86 704.017 1301.86 697.942 1301.86 691.867 1306.78 686.942 1312.86 686.942 1318.93 686.942 1323.86 691.867 1323.86 697.942Z" stroke="#ED7D31" stroke-width="3.4375" stroke-linejoin="round" stroke-miterlimit="10" fill="#ED7D31"/><path d="M1620.86 611.942C1620.86 618.017 1615.93 622.941 1609.86 622.941 1603.78 622.941 1598.86 618.017 1598.86 611.942 1598.86 605.867 1603.78 600.942 1609.86 600.942 1615.93 600.942 1620.86 605.867 1620.86 611.942Z" stroke="#ED7D31" stroke-width="3.4375" stroke-linejoin="round" stroke-miterlimit="10" fill="#ED7D31"/><path d="M1916.86 555.942C1916.86 562.017 1911.93 566.941 1905.86 566.941 1899.78 566.941 1894.86 562.017 1894.86 555.942 1894.86 549.867 1899.78 544.942 1905.86 544.942 1911.93 544.942 1916.86 549.867 1916.86 555.942Z" stroke="#ED7D31" stroke-width="3.4375" stroke-linejoin="round" stroke-miterlimit="10" fill="#ED7D31"/><path d="M2212.86 513.942C2212.86 520.017 2207.93 524.941 2201.86 524.941 2195.78 524.941 2190.86 520.017 2190.86 513.942 2190.86 507.867 2195.78 502.942 2201.86 502.942 2207.93 502.942 2212.86 507.867 2212.86 513.942Z" stroke="#ED7D31" stroke-width="3.4375" stroke-linejoin="round" stroke-miterlimit="10" fill="#ED7D31"/></g><g clip-path="url(#clip9)"><text fill="#0D0D0D" font-family="Times New Roman,Times New Roman_MSFontService,sans-serif" font-weight="400" font-size="41" transform="matrix(1 0 0 1 960.703 1108)">0</text></g><g clip-path="url(#clip10)"><text fill="#0D0D0D" font-family="Times New Roman,Times New Roman_MSFontService,sans-serif" font-weight="400" font-size="41" transform="matrix(1 0 0 1 960.703 1036)">2</text></g><g clip-path="url(#clip11)"><text fill="#0D0D0D" font-family="Times New Roman,Times New Roman_MSFontService,sans-serif" font-weight="400" font-size="41" transform="matrix(1 0 0 1 960.703 965)">4</text></g><g clip-path="url(#clip12)"><text fill="#0D0D0D" font-family="Times New Roman,Times New Roman_MSFontService,sans-serif" font-weight="400" font-size="41" transform="matrix(1 0 0 1 960.703 893)">6</text></g><g clip-path="url(#clip13)"><text fill="#0D0D0D" font-family="Times New Roman,Times New Roman_MSFontService,sans-serif" font-weight="400" font-size="41" transform="matrix(1 0 0 1 960.703 822)">8</text></g><g clip-path="url(#clip14)"><text fill="#0D0D0D" font-family="Times New Roman,Times New Roman_MSFontService,sans-serif" font-weight="400" font-size="41" transform="matrix(1 0 0 1 940.078 751)">10</text></g><g clip-path="url(#clip15)"><text fill="#0D0D0D" font-family="Times New Roman,Times New Roman_MSFontService,sans-serif" font-weight="400" font-size="41" transform="matrix(1 0 0 1 940.078 679)">12</text></g><g clip-path="url(#clip16)"><text fill="#0D0D0D" font-family="Times New Roman,Times New Roman_MSFontService,sans-serif" font-weight="400" font-size="41" transform="matrix(1 0 0 1 940.078 608)">14</text></g><g clip-path="url(#clip17)"><text fill="#0D0D0D" font-family="Times New Roman,Times New Roman_MSFontService,sans-serif" font-weight="400" font-size="41" transform="matrix(1 0 0 1 940.078 537)">16</text></g><g clip-path="url(#clip18)"><text fill="#0D0D0D" font-family="Times New Roman,Times New Roman_MSFontService,sans-serif" font-weight="400" font-size="41" transform="matrix(1 0 0 1 940.078 465)">18</text></g><g clip-path="url(#clip19)"><text fill="#0D0D0D" font-family="Times New Roman,Times New Roman_MSFontService,sans-serif" font-weight="400" font-size="41" transform="matrix(1 0 0 1 1006.11 1156)">0</text></g><g clip-path="url(#clip20)"><text fill="#0D0D0D" font-family="Times New Roman,Times New Roman_MSFontService,sans-serif" font-weight="400" font-size="41" transform="matrix(1 0 0 1 1130.82 1156)">20000</text></g><g clip-path="url(#clip21)"><text fill="#0D0D0D" font-family="Times New Roman,Times New Roman_MSFontService,sans-serif" font-weight="400" font-size="41" transform="matrix(1 0 0 1 1296.78 1156)">40000</text></g><g clip-path="url(#clip22)"><text fill="#0D0D0D" font-family="Times New Roman,Times New Roman_MSFontService,sans-serif" font-weight="400" font-size="41" transform="matrix(1 0 0 1 1462.74 1156)">60000</text></g><g clip-path="url(#clip23)"><text fill="#0D0D0D" font-family="Times New Roman,Times New Roman_MSFontService,sans-serif" font-weight="400" font-size="41" transform="matrix(1 0 0 1 1628.7 1156)">80000</text></g><g clip-path="url(#clip24)"><text fill="#0D0D0D" font-family="Times New Roman,Times New Roman_MSFontService,sans-serif" font-weight="400" font-size="41" transform="matrix(1 0 0 1 1784.35 1156)">100000</text></g><g clip-path="url(#clip25)"><text fill="#0D0D0D" font-family="Times New Roman,Times New Roman_MSFontService,sans-serif" font-weight="400" font-size="41" transform="matrix(1 0 0 1 1950.31 1156)">120000</text></g><g clip-path="url(#clip26)"><text fill="#0D0D0D" font-family="Times New Roman,Times New Roman_MSFontService,sans-serif" font-weight="400" font-size="41" transform="matrix(1 0 0 1 2116.27 1156)">140000</text></g><g clip-path="url(#clip27)"><text fill="#0D0D0D" font-family="Times New Roman,Times New Roman_MSFontService,sans-serif" font-weight="400" font-size="41" transform="matrix(1 0 0 1 2282.23 1156)">160000</text></g><g clip-path="url(#clip28)"><text fill="#0D0D0D" font-family="Yu Mincho,Yu Mincho_MSFontService,sans-serif" font-weight="400" font-size="46" transform="matrix(6.12323e-17 -1 1 6.12323e-17 903.641 957)">平均ヌッセルト数</text></g><g clip-path="url(#clip29)"><text fill="#0D0D0D" font-family="Yu Mincho,Yu Mincho_MSFontService,sans-serif" font-weight="400" font-size="46" transform="matrix(1 0 0 1 1542.76 1233)">グラスホフ数</text></g><g clip-path="url(#clip30)"><path d="M1327.5 365.5 1415.5 365.5" stroke="#4472C4" stroke-width="6.875" stroke-linecap="round" stroke-linejoin="round" stroke-miterlimit="10" fill="none" fill-rule="evenodd"/></g><g clip-path="url(#clip31)"><path d="M1382 365C1382 371.075 1377.08 375.999 1371 375.999 1364.93 375.999 1360 371.075 1360 365 1360 358.924 1364.93 354 1371 354 1377.08 354 1382 358.924 1382 365Z" stroke="#4472C4" stroke-width="3.4375" stroke-linejoin="round" stroke-miterlimit="10" fill="#4472C4"/></g><g clip-path="url(#clip32)"><text fill="#0D0D0D" font-family="Times New Roman,Times New Roman_MSFontService,sans-serif" font-weight="400" font-size="41" transform="matrix(1 0 0 1 1424.44 379)">0.5</text></g><g clip-path="url(#clip33)"><text fill="#0D0D0D" font-family="Yu Gothic,Yu Gothic_MSFontService,sans-serif" font-weight="400" font-size="41" transform="matrix(1 0 0 1 1476 379)">度の時</text></g><g clip-path="url(#clip34)"><path d="M1651.5 365.5 1739.5 365.5" stroke="#ED7D31" stroke-width="6.875" stroke-linecap="round" stroke-linejoin="round" stroke-miterlimit="10" fill="none" fill-rule="evenodd"/></g><g clip-path="url(#clip35)"><path d="M1706 365C1706 371.075 1701.07 375.999 1695 375.999 1688.92 375.999 1684 371.075 1684 365 1684 358.924 1688.92 354 1695 354 1701.07 354 1706 358.924 1706 365Z" stroke="#ED7D31" stroke-width="3.4375" stroke-linejoin="round" stroke-miterlimit="10" fill="#ED7D31"/></g><g clip-path="url(#clip36)"><text fill="#0D0D0D" font-family="Times New Roman,Times New Roman_MSFontService,sans-serif" font-weight="400" font-size="41" transform="matrix(1 0 0 1 1748.71 379)">-</text></g><g clip-path="url(#clip37)"><text fill="#0D0D0D" font-family="Times New Roman,Times New Roman_MSFontService,sans-serif" font-weight="400" font-size="41" transform="matrix(1 0 0 1 1762.44 379)">0.5</text></g><g clip-path="url(#clip38)"><text fill="#0D0D0D" font-family="Yu Gothic,Yu Gothic_MSFontService,sans-serif" font-weight="400" font-size="41" transform="matrix(1 0 0 1 1814 379)">度の時</text></g><rect x="792.5" y="301.5" width="1664" height="1012" stroke="#D9D9D9" stroke-width="3.4375" stroke-linejoin="round" stroke-miterlimit="10" fill="none"/></g></svg>